<svg width="100" height="75" viewBox="0 0 100 75" fill="none" xmlns="http://www.w3.org/2000/svg">
<rect width="100" height="75" rx="6" fill="#EDFDF2"/>
<path d="M51.7999 15.75C44.3884 15.75 39.1942 15.989 35.9257 16.217C32.6563 16.445 30.0573 18.9134 29.7668 22.2187C29.5174 25.0584 29.2749 29.3447 29.2749 35.2795C29.2749 41.2144 29.5174 45.5007 29.7668 48.3404C30.0573 51.6456 32.6563 54.1141 35.9257 54.3421C37.3432 54.441 39.1227 54.5419 41.2882 54.6245V59.1414C41.2882 61.2805 43.7963 62.4345 45.4198 61.0424L52.6905 54.8079C59.6294 54.7897 64.538 54.5608 67.6741 54.3421C70.9434 54.1141 73.5425 51.6456 73.833 48.3404C74.0824 45.5007 74.3249 41.2144 74.3249 35.2795C74.3249 29.3447 74.0824 25.0584 73.833 22.2187C73.5425 18.9134 70.9434 16.445 67.6741 16.217C64.4056 15.989 59.2114 15.75 51.7999 15.75Z" fill="#B6F5CC"/>
<path d="M35.2261 32.036C35.5225 41.4589 43.254 49.0062 52.7485 49.0062C56.3786 49.0062 59.1235 46.1721 59.1235 42.5946C59.1235 41.6171 58.5284 40.738 57.6208 40.375L54.3455 39.0649C53.2602 38.6308 52.0207 38.8852 51.1943 39.7117L49.5599 41.3461C49.4876 41.4183 49.4065 41.4269 49.357 41.4118C46.2298 40.4622 43.7613 37.9937 42.8117 34.8665C42.7966 34.817 42.8052 34.7359 42.8774 34.6636L44.5118 33.0293C45.3383 32.2028 45.5928 30.9633 45.1586 29.878L43.8485 26.6027C43.4855 25.6951 42.6064 25.1 41.6289 25.1C37.7165 25.1 35.1655 28.2139 35.2261 32.036Z" fill="#fff" stroke="#93F0B4" stroke-width="0.85"/>
<path d="M54.0247 33.44L55.0051 33.6373L54.0247 33.4401C53.7073 35.0177 55.1181 36.3547 56.6643 35.9928L56.6643 35.9928C57.9574 35.69 59.2596 35.2848 60.4361 34.865C62.1732 35.7814 64.1526 36.3 66.2499 36.3C73.1397 36.3 78.7249 30.7147 78.7249 23.825C78.7249 16.9352 73.1397 11.35 66.2499 11.35C59.3602 11.35 53.7749 16.9352 53.7749 23.825C53.7749 25.8672 54.2666 27.7978 55.1387 29.5018C54.7023 30.713 54.2997 32.0732 54.0247 33.44Z" fill="#5DE98E" stroke="#fff" stroke-width="2"/>
<path fill-rule="evenodd" clip-rule="evenodd" d="M61.15 25.61C60.1642 25.61 59.365 24.8109 59.365 23.825C59.365 22.8392 60.1642 22.04 61.15 22.04C62.1358 22.04 62.935 22.8392 62.935 23.825C62.935 24.8109 62.1358 25.61 61.15 25.61Z" fill="white"/>
<path d="M66.2501 25.61C65.2643 25.61 64.4651 24.8109 64.4651 23.825C64.4651 22.8392 65.2643 22.04 66.2501 22.04C67.2359 22.04 68.0351 22.8392 68.0351 23.825C68.0351 24.8109 67.2359 25.61 66.2501 25.61Z" fill="white"/>
<path d="M71.3499 25.61C70.3641 25.61 69.5649 24.8109 69.5649 23.825C69.5649 22.8392 70.3641 22.04 71.3499 22.04C72.3358 22.04 73.1349 22.8392 73.1349 23.825C73.1349 24.8109 72.3358 25.61 71.3499 25.61Z" fill="white"/>
</svg>
